<?xml version="1.0" encoding="utf-8"?>
<!-- Generator: Adobe Illustrator 27.6.1, SVG Export Plug-In . SVG Version: 6.00 Build 0)  -->
<svg version="1.1" id="Layer_1" xmlns="http://www.w3.org/2000/svg" xmlns:xlink="http://www.w3.org/1999/xlink" x="0px" y="0px"
	 viewBox="0 0 922 283.5" style="enable-background:new 0 0 922 283.5;" xml:space="preserve">
<style type="text/css">
	.st0{fill:#00FF00;}
	.st1{fill:#FFFFFF;}
</style>
<path class="st0" d="M141.7,0C63.6,0,0,63.6,0,141.7c0,78.2,63.5,141.8,141.7,141.8s141.7-63.6,141.7-141.7
	C283.5,63.6,219.8,0,141.7,0z M141.7,226.8c-46.9,0-85-38.2-85-85s38.2-85,85-85s85,38.1,85,85C226.8,188.6,188.6,226.8,141.7,226.8
	z"/>
<g>
	<g>
		<g>
			<polygon class="st1" points="322.4,181.2 322.4,88 384.6,88 384.6,102.6 338.8,102.6 338.8,127.9 377.2,127.9 377.2,142.4 
				338.8,142.4 338.8,181.2 			"/>
			<path class="st1" d="M500.7,127.9c-1.9-0.3-3.5-0.4-5.7-0.4c-9.9,0-17.4,6.4-17.4,17.3v35.8H462v-68.2h15.6v10.1
				c3-6.4,10-10.5,18.7-10.5c1.8,0,3.2,0.1,4.4,0.3V127.9z"/>
			<path class="st1" d="M518.6,125.6h-9.5v-13.2h9.5v-20h15.3v20h14.3v13.2h-14.3V161c0,6.1,3.5,6.8,9.1,6.8c2.6,0,4-0.1,6.4-0.4
				v13.1c-2.9,0.5-6.7,0.9-10.8,0.9c-13,0-20-4-20-17.9V125.6z"/>
			<path class="st1" d="M570,138.2h31.3c-0.1-7.5-4.8-14-14.7-14C578.6,124.2,572.4,129,570,138.2 M554.3,146.5
				c0-20,13.5-35.4,32.5-35.4c19.7,0,30.2,14.9,30.2,33.6v5.2h-47.8c1.2,11.7,8.2,18.8,18.2,18.8c7.7,0,13.8-3.9,15.8-10.9l13.4,5.1
				c-4.8,11.9-15.6,19.1-29.2,19.1C567.9,182,554.3,167.6,554.3,146.5"/>
			<path class="st1" d="M634.1,158.2c4,6.6,11.8,11,19.7,11c6.6,0,12.7-2.3,12.7-8.4c0-5.8-5.7-6.5-16.5-8.7
				c-10.8-2.2-23.1-4.9-23.1-19.5c0-12.5,10.9-21.6,26.6-21.6c11.9,0,22.6,5.3,27.5,12.9l-10.5,9.5c-3.9-6.1-10.4-9.6-17.9-9.6
				c-6.4,0-10.5,2.9-10.5,7.4c0,4.9,4.9,5.8,13.5,7.7c11.6,2.5,26.1,4.9,26.1,20.5c0,13.8-12.6,22.6-28,22.6
				c-12.6,0-25.2-5.1-31.3-14.4L634.1,158.2z"/>
			<path class="st1" d="M821.5,180.6h-15.6v-7.3c-3.9,4.5-9.7,8.7-18.6,8.7c-14.3,0-23.1-9.7-23.1-24.4v-45.2h15.6v41.8
				c0,8.3,3.6,13.6,12.1,13.6c7,0,14-5.2,14-14.9v-40.5h15.6V180.6z"/>
			<path class="st1" d="M848.6,138.2h31.3c-0.1-7.5-4.8-14-14.7-14C857.2,124.2,850.9,129,848.6,138.2 M832.9,146.5
				c0-20,13.5-35.4,32.5-35.4c19.7,0,30.2,14.9,30.2,33.6v5.2h-47.8c1.2,11.7,8.2,18.8,18.2,18.8c7.7,0,13.8-3.9,15.8-10.9l13.4,5.1
				c-4.8,11.9-15.6,19.1-29.2,19.1C846.5,182,832.9,167.6,832.9,146.5"/>
			<path class="st1" d="M419.2,126.3c-11.4,0-20.6,9.2-20.6,20.4c0,11.2,9.2,20.4,20.6,20.4c11.4,0,20.6-9.2,20.6-20.4
				C439.8,135.4,430.6,126.3,419.2,126.3 M419.2,182c-19.6,0-35.5-15.8-35.5-35.3c0-19.5,15.9-35.3,35.5-35.3
				c19.6,0,35.5,15.9,35.5,35.3C454.7,166.1,438.8,182,419.2,182"/>
			<path class="st1" d="M724.3,167c-11.4,0-20.6-9.2-20.6-20.4c0-11.2,9.2-20.4,20.6-20.4c6.7,0,12.6,3.2,16.4,8
				c0.1,0.1,0.2,0.3,0.3,0.4l13-7.4c-0.2-0.3-0.4-0.6-0.6-0.8c-6.4-9.1-17.1-15.1-29.1-15.1c-19.6,0-35.5,15.8-35.5,35.3
				c0,19.5,15.9,35.3,35.5,35.3c13.1,0,24.5-7.1,30.7-17.5l-13.3-6.7C738,163.2,731.6,167,724.3,167"/>
		</g>
	</g>
</g>
<g>
	<path class="st1" d="M905.1,170.5v9.6h-2.4v-9.6H899v-2.1h9.8v2.1H905.1z"/>
	<path class="st1" d="M915.1,180.2l-2.8-8.6v8.6H910v-11.7h3.3l2.7,8.3l2.7-8.3h3.3v11.7h-2.3v-8.6l-2.8,8.6H915.1z"/>
</g>
</svg>
